<svg xmlns="http://www.w3.org/2000/svg" viewBox="0 0 720 480"><defs><pattern id="grid" width="12" height="12" patternUnits="userSpaceOnUse"><path d="M12 0H0V12" fill="none" stroke="#dce5d7" stroke-width=".6"/></pattern><pattern id="wood" width="24" height="24" patternUnits="userSpaceOnUse"><rect width="24" height="24" fill="#d8b78b"/><path d="M0 12H24M12 0V24" stroke="#ba9767" stroke-width=".6"/></pattern></defs><rect width="720" height="480" fill="#edf3e7"/><rect width="720" height="480" fill="url(#grid)"/><path d="M120 58H600M120 52V64M600 52V64M95 80V400M89 80H101M89 400H101" fill="none" stroke="#9aac8c"/><g font-family="system-ui,sans-serif" font-size="11" fill="#6c8060"><text x="345" y="48">60 ft</text><text x="69" y="246" transform="rotate(-90 69 246)">40 ft</text></g><rect x="120" y="80" width="480" height="320" rx="2" fill="#fffdf6" stroke="#7c9670" stroke-width="2"/><circle cx="120" cy="80" r="3" fill="#638057"/><circle cx="120" cy="400" r="3" fill="#638057"/><circle cx="200" cy="80" r="3" fill="#638057"/><circle cx="200" cy="400" r="3" fill="#638057"/><circle cx="280" cy="80" r="3" fill="#638057"/><circle cx="280" cy="400" r="3" fill="#638057"/><circle cx="360" cy="80" r="3" fill="#638057"/><circle cx="360" cy="400" r="3" fill="#638057"/><circle cx="440" cy="80" r="3" fill="#638057"/><circle cx="440" cy="400" r="3" fill="#638057"/><circle cx="520" cy="80" r="3" fill="#638057"/><circle cx="520" cy="400" r="3" fill="#638057"/><circle cx="600" cy="80" r="3" fill="#638057"/><circle cx="600" cy="400" r="3" fill="#638057"/><rect x="224.0" y="140.0" width="10" height="8" rx="2" fill="#e7eddf" stroke="#9fac93" stroke-width=".9" transform="rotate(90 229.0 144.0)"/><rect x="215.5" y="160.5" width="10" height="8" rx="2" fill="#e7eddf" stroke="#9fac93" stroke-width=".9" transform="rotate(135 220.5 164.5)"/><rect x="195.0" y="169.0" width="10" height="8" rx="2" fill="#e7eddf" stroke="#9fac93" stroke-width=".9" transform="rotate(180 200.0 173.0)"/><rect x="174.5" y="160.5" width="10" height="8" rx="2" fill="#e7eddf" stroke="#9fac93" stroke-width=".9" transform="rotate(225 179.5 164.5)"/><rect x="166.0" y="140.0" width="10" height="8" rx="2" fill="#e7eddf" stroke="#9fac93" stroke-width=".9" transform="rotate(270 171.0 144.0)"/><rect x="174.5" y="119.5" width="10" height="8" rx="2" fill="#e7eddf" stroke="#9fac93" stroke-width=".9" transform="rotate(315 179.5 123.5)"/><rect x="195.0" y="111.0" width="10" height="8" rx="2" fill="#e7eddf" stroke="#9fac93" stroke-width=".9" transform="rotate(360 200.0 115.0)"/><rect x="215.5" y="119.5" width="10" height="8" rx="2" fill="#e7eddf" stroke="#9fac93" stroke-width=".9" transform="rotate(405 220.5 123.5)"/><ellipse cx="200.0" cy="144.0" rx="20" ry="20" fill="#faf8ef" stroke="#b5b69c" stroke-width="1.4"/><circle cx="200.0" cy="144.0" r="4" fill="#8b9d70"/><rect x="224.0" y="332.0" width="10" height="8" rx="2" fill="#e7eddf" stroke="#9fac93" stroke-width=".9" transform="rotate(90 229.0 336.0)"/><rect x="215.5" y="352.5" width="10" height="8" rx="2" fill="#e7eddf" stroke="#9fac93" stroke-width=".9" transform="rotate(135 220.5 356.5)"/><rect x="195.0" y="361.0" width="10" height="8" rx="2" fill="#e7eddf" stroke="#9fac93" stroke-width=".9" transform="rotate(180 200.0 365.0)"/><rect x="174.5" y="352.5" width="10" height="8" rx="2" fill="#e7eddf" stroke="#9fac93" stroke-width=".9" transform="rotate(225 179.5 356.5)"/><rect x="166.0" y="332.0" width="10" height="8" rx="2" fill="#e7eddf" stroke="#9fac93" stroke-width=".9" transform="rotate(270 171.0 336.0)"/><rect x="174.5" y="311.5" width="10" height="8" rx="2" fill="#e7eddf" stroke="#9fac93" stroke-width=".9" transform="rotate(315 179.5 315.5)"/><rect x="195.0" y="303.0" width="10" height="8" rx="2" fill="#e7eddf" stroke="#9fac93" stroke-width=".9" transform="rotate(360 200.0 307.0)"/><rect x="215.5" y="311.5" width="10" height="8" rx="2" fill="#e7eddf" stroke="#9fac93" stroke-width=".9" transform="rotate(405 220.5 315.5)"/><ellipse cx="200.0" cy="336.0" rx="20" ry="20" fill="#faf8ef" stroke="#b5b69c" stroke-width="1.4"/><circle cx="200.0" cy="336.0" r="4" fill="#8b9d70"/><rect x="320.0" y="140.0" width="10" height="8" rx="2" fill="#e7eddf" stroke="#9fac93" stroke-width=".9" transform="rotate(90 325.0 144.0)"/><rect x="311.5" y="160.5" width="10" height="8" rx="2" fill="#e7eddf" stroke="#9fac93" stroke-width=".9" transform="rotate(135 316.5 164.5)"/><rect x="291.0" y="169.0" width="10" height="8" rx="2" fill="#e7eddf" stroke="#9fac93" stroke-width=".9" transform="rotate(180 296.0 173.0)"/><rect x="270.5" y="160.5" width="10" height="8" rx="2" fill="#e7eddf" stroke="#9fac93" stroke-width=".9" transform="rotate(225 275.5 164.5)"/><rect x="262.0" y="140.0" width="10" height="8" rx="2" fill="#e7eddf" stroke="#9fac93" stroke-width=".9" transform="rotate(270 267.0 144.0)"/><rect x="270.5" y="119.5" width="10" height="8" rx="2" fill="#e7eddf" stroke="#9fac93" stroke-width=".9" transform="rotate(315 275.5 123.5)"/><rect x="291.0" y="111.0" width="10" height="8" rx="2" fill="#e7eddf" stroke="#9fac93" stroke-width=".9" transform="rotate(360 296.0 115.0)"/><rect x="311.5" y="119.5" width="10" height="8" rx="2" fill="#e7eddf" stroke="#9fac93" stroke-width=".9" transform="rotate(405 316.5 123.5)"/><ellipse cx="296.0" cy="144.0" rx="20" ry="20" fill="#faf8ef" stroke="#b5b69c" stroke-width="1.4"/><circle cx="296.0" cy="144.0" r="4" fill="#8b9d70"/><rect x="320.0" y="332.0" width="10" height="8" rx="2" fill="#e7eddf" stroke="#9fac93" stroke-width=".9" transform="rotate(90 325.0 336.0)"/><rect x="311.5" y="352.5" width="10" height="8" rx="2" fill="#e7eddf" stroke="#9fac93" stroke-width=".9" transform="rotate(135 316.5 356.5)"/><rect x="291.0" y="361.0" width="10" height="8" rx="2" fill="#e7eddf" stroke="#9fac93" stroke-width=".9" transform="rotate(180 296.0 365.0)"/><rect x="270.5" y="352.5" width="10" height="8" rx="2" fill="#e7eddf" stroke="#9fac93" stroke-width=".9" transform="rotate(225 275.5 356.5)"/><rect x="262.0" y="332.0" width="10" height="8" rx="2" fill="#e7eddf" stroke="#9fac93" stroke-width=".9" transform="rotate(270 267.0 336.0)"/><rect x="270.5" y="311.5" width="10" height="8" rx="2" fill="#e7eddf" stroke="#9fac93" stroke-width=".9" transform="rotate(315 275.5 315.5)"/><rect x="291.0" y="303.0" width="10" height="8" rx="2" fill="#e7eddf" stroke="#9fac93" stroke-width=".9" transform="rotate(360 296.0 307.0)"/><rect x="311.5" y="311.5" width="10" height="8" rx="2" fill="#e7eddf" stroke="#9fac93" stroke-width=".9" transform="rotate(405 316.5 315.5)"/><ellipse cx="296.0" cy="336.0" rx="20" ry="20" fill="#faf8ef" stroke="#b5b69c" stroke-width="1.4"/><circle cx="296.0" cy="336.0" r="4" fill="#8b9d70"/><rect x="448.0" y="140.0" width="10" height="8" rx="2" fill="#e7eddf" stroke="#9fac93" stroke-width=".9" transform="rotate(90 453.0 144.0)"/><rect x="439.5" y="160.5" width="10" height="8" rx="2" fill="#e7eddf" stroke="#9fac93" stroke-width=".9" transform="rotate(135 444.5 164.5)"/><rect x="419.0" y="169.0" width="10" height="8" rx="2" fill="#e7eddf" stroke="#9fac93" stroke-width=".9" transform="rotate(180 424.0 173.0)"/><rect x="398.5" y="160.5" width="10" height="8" rx="2" fill="#e7eddf" stroke="#9fac93" stroke-width=".9" transform="rotate(225 403.5 164.5)"/><rect x="390.0" y="140.0" width="10" height="8" rx="2" fill="#e7eddf" stroke="#9fac93" stroke-width=".9" transform="rotate(270 395.0 144.0)"/><rect x="398.5" y="119.5" width="10" height="8" rx="2" fill="#e7eddf" stroke="#9fac93" stroke-width=".9" transform="rotate(315 403.5 123.5)"/><rect x="419.0" y="111.0" width="10" height="8" rx="2" fill="#e7eddf" stroke="#9fac93" stroke-width=".9" transform="rotate(360 424.0 115.0)"/><rect x="439.5" y="119.5" width="10" height="8" rx="2" fill="#e7eddf" stroke="#9fac93" stroke-width=".9" transform="rotate(405 444.5 123.5)"/><ellipse cx="424.0" cy="144.0" rx="20" ry="20" fill="#faf8ef" stroke="#b5b69c" stroke-width="1.4"/><circle cx="424.0" cy="144.0" r="4" fill="#8b9d70"/><rect x="448.0" y="332.0" width="10" height="8" rx="2" fill="#e7eddf" stroke="#9fac93" stroke-width=".9" transform="rotate(90 453.0 336.0)"/><rect x="439.5" y="352.5" width="10" height="8" rx="2" fill="#e7eddf" stroke="#9fac93" stroke-width=".9" transform="rotate(135 444.5 356.5)"/><rect x="419.0" y="361.0" width="10" height="8" rx="2" fill="#e7eddf" stroke="#9fac93" stroke-width=".9" transform="rotate(180 424.0 365.0)"/><rect x="398.5" y="352.5" width="10" height="8" rx="2" fill="#e7eddf" stroke="#9fac93" stroke-width=".9" transform="rotate(225 403.5 356.5)"/><rect x="390.0" y="332.0" width="10" height="8" rx="2" fill="#e7eddf" stroke="#9fac93" stroke-width=".9" transform="rotate(270 395.0 336.0)"/><rect x="398.5" y="311.5" width="10" height="8" rx="2" fill="#e7eddf" stroke="#9fac93" stroke-width=".9" transform="rotate(315 403.5 315.5)"/><rect x="419.0" y="303.0" width="10" height="8" rx="2" fill="#e7eddf" stroke="#9fac93" stroke-width=".9" transform="rotate(360 424.0 307.0)"/><rect x="439.5" y="311.5" width="10" height="8" rx="2" fill="#e7eddf" stroke="#9fac93" stroke-width=".9" transform="rotate(405 444.5 315.5)"/><ellipse cx="424.0" cy="336.0" rx="20" ry="20" fill="#faf8ef" stroke="#b5b69c" stroke-width="1.4"/><circle cx="424.0" cy="336.0" r="4" fill="#8b9d70"/><rect x="544.0" y="140.0" width="10" height="8" rx="2" fill="#e7eddf" stroke="#9fac93" stroke-width=".9" transform="rotate(90 549.0 144.0)"/><rect x="535.5" y="160.5" width="10" height="8" rx="2" fill="#e7eddf" stroke="#9fac93" stroke-width=".9" transform="rotate(135 540.5 164.5)"/><rect x="515.0" y="169.0" width="10" height="8" rx="2" fill="#e7eddf" stroke="#9fac93" stroke-width=".9" transform="rotate(180 520.0 173.0)"/><rect x="494.5" y="160.5" width="10" height="8" rx="2" fill="#e7eddf" stroke="#9fac93" stroke-width=".9" transform="rotate(225 499.5 164.5)"/><rect x="486.0" y="140.0" width="10" height="8" rx="2" fill="#e7eddf" stroke="#9fac93" stroke-width=".9" transform="rotate(270 491.0 144.0)"/><rect x="494.5" y="119.5" width="10" height="8" rx="2" fill="#e7eddf" stroke="#9fac93" stroke-width=".9" transform="rotate(315 499.5 123.5)"/><rect x="515.0" y="111.0" width="10" height="8" rx="2" fill="#e7eddf" stroke="#9fac93" stroke-width=".9" transform="rotate(360 520.0 115.0)"/><rect x="535.5" y="119.5" width="10" height="8" rx="2" fill="#e7eddf" stroke="#9fac93" stroke-width=".9" transform="rotate(405 540.5 123.5)"/><ellipse cx="520.0" cy="144.0" rx="20" ry="20" fill="#faf8ef" stroke="#b5b69c" stroke-width="1.4"/><circle cx="520.0" cy="144.0" r="4" fill="#8b9d70"/><rect x="544.0" y="332.0" width="10" height="8" rx="2" fill="#e7eddf" stroke="#9fac93" stroke-width=".9" transform="rotate(90 549.0 336.0)"/><rect x="535.5" y="352.5" width="10" height="8" rx="2" fill="#e7eddf" stroke="#9fac93" stroke-width=".9" transform="rotate(135 540.5 356.5)"/><rect x="515.0" y="361.0" width="10" height="8" rx="2" fill="#e7eddf" stroke="#9fac93" stroke-width=".9" transform="rotate(180 520.0 365.0)"/><rect x="494.5" y="352.5" width="10" height="8" rx="2" fill="#e7eddf" stroke="#9fac93" stroke-width=".9" transform="rotate(225 499.5 356.5)"/><rect x="486.0" y="332.0" width="10" height="8" rx="2" fill="#e7eddf" stroke="#9fac93" stroke-width=".9" transform="rotate(270 491.0 336.0)"/><rect x="494.5" y="311.5" width="10" height="8" rx="2" fill="#e7eddf" stroke="#9fac93" stroke-width=".9" transform="rotate(315 499.5 315.5)"/><rect x="515.0" y="303.0" width="10" height="8" rx="2" fill="#e7eddf" stroke="#9fac93" stroke-width=".9" transform="rotate(360 520.0 307.0)"/><rect x="535.5" y="311.5" width="10" height="8" rx="2" fill="#e7eddf" stroke="#9fac93" stroke-width=".9" transform="rotate(405 540.5 315.5)"/><ellipse cx="520.0" cy="336.0" rx="20" ry="20" fill="#faf8ef" stroke="#b5b69c" stroke-width="1.4"/><circle cx="520.0" cy="336.0" r="4" fill="#8b9d70"/><rect x="312" y="192" width="96" height="96" fill="url(#wood)" stroke="#a17d54" stroke-width="1.3"/><rect x="310" y="226" width="100" height="27" rx="4" fill="#fffdf5e8"/><text x="360" y="244" text-anchor="middle" font-family="system-ui,sans-serif" font-size="10" fill="#7a6244">12′ × 12′ dance floor</text><circle cx="280" cy="240" r="4" fill="#63765a"/><circle cx="440" cy="240" r="4" fill="#63765a"/><rect x="137.6" y="216.0" width="20" height="48.0" rx="3" fill="#fcf9f0" stroke="#bfaa85" stroke-width="1.2"/><text x="147.6" y="240.0" transform="rotate(-90 147.6 240.0)" text-anchor="middle" font-family="system-ui,sans-serif" font-size="7" font-weight="700" fill="#566d8b">SWEETHEART</text><rect x="561.6" y="216.0" width="20" height="48.0" rx="3" fill="#fcf9f0" stroke="#bfaa85" stroke-width="1.2"/><text x="571.6" y="240.0" transform="rotate(-90 571.6 240.0)" text-anchor="middle" font-family="system-ui,sans-serif" font-size="7" font-weight="700" fill="#566d8b">DJ</text><rect x="355.2" y="326.4" width="20" height="64.0" rx="3" fill="#fcf9f0" stroke="#bfaa85" stroke-width="1.2"/><text x="365.2" y="358.4" transform="rotate(-90 365.2 358.4)" text-anchor="middle" font-family="system-ui,sans-serif" font-size="7" font-weight="700" fill="#566d8b">BAR</text><rect x="337.6" y="89.6" width="20" height="64.0" rx="3" fill="#fcf9f0" stroke="#bfaa85" stroke-width="1.2"/><text x="347.6" y="121.6" transform="rotate(-90 347.6 121.6)" text-anchor="middle" font-family="system-ui,sans-serif" font-size="7" font-weight="700" fill="#566d8b">BUFFET</text><rect x="393.6" y="89.6" width="20" height="64.0" rx="3" fill="#fcf9f0" stroke="#bfaa85" stroke-width="1.2"/><text x="403.6" y="121.6" transform="rotate(-90 403.6 121.6)" text-anchor="middle" font-family="system-ui,sans-serif" font-size="7" font-weight="700" fill="#566d8b">BUFFET</text><circle cx="505.6" cy="97.6" r="10" fill="#fffdf6" stroke="#c5b18d" stroke-width="1"/><circle cx="505.6" cy="97.6" r="2.2" fill="#6a8871"/><circle cx="505.6" cy="362.4" r="10" fill="#fffdf6" stroke="#c5b18d" stroke-width="1"/><circle cx="505.6" cy="362.4" r="2.2" fill="#6a8871"/><path d="M582 207q16 33 0 66" fill="none" stroke="#bc9f74" stroke-width="3"/><text x="360" y="436" text-anchor="middle" font-family="system-ui,sans-serif" font-size="10" fill="#667b92">Example arrangement · confirm clearances with your rental team</text></svg>
